<svg xmlns="http://www.w3.org/2000/svg" xmlns:xlink="http://www.w3.org/1999/xlink" viewBox="0,0,256,256" width="32px" height="32px"><g fill="#ffffff" fill-rule="nonzero" stroke="none" stroke-width="1" stroke-linecap="butt" stroke-linejoin="miter" stroke-miterlimit="10" stroke-dasharray="" stroke-dashoffset="0" font-family="none" font-weight="none" font-size="none" text-anchor="none" style="mix-blend-mode: normal"><g transform="scale(8,8)"><path d="M6.10156,6.10156c-2.534,2.533 -4.10156,6.03244 -4.10156,9.89844c0,3.866 1.56756,7.36544 4.10156,9.89844l1.41797,-1.41797c-2.173,-2.173 -3.51953,-5.17247 -3.51953,-8.48047c0,-3.308 1.34653,-6.30747 3.51953,-8.48047zM25.89844,6.10156l-1.41797,1.41797c2.173,2.173 3.51953,5.17247 3.51953,8.48047c0,3.308 -1.34653,6.30747 -3.51953,8.48047l1.41797,1.41797c2.534,-2.533 4.10156,-6.03244 4.10156,-9.89844c0,-3.866 -1.56756,-7.36544 -4.10156,-9.89844zM9.63672,9.63672c-1.629,1.629 -2.63672,3.87828 -2.63672,6.36328c0,2.485 1.00772,4.73428 2.63672,6.36328l1.41602,-1.41602c-1.268,-1.267 -2.05273,-3.01727 -2.05273,-4.94727c0,-1.93 0.78473,-3.68027 2.05273,-4.94727zM22.36328,9.63672l-1.41602,1.41602c1.268,1.267 2.05273,3.01727 2.05273,4.94727c0,1.93 -0.78473,3.68027 -2.05273,4.94727l1.41602,1.41602c1.629,-1.629 2.63672,-3.87828 2.63672,-6.36328c0,-2.485 -1.00772,-4.73428 -2.63672,-6.36328zM16,12c-2.20914,0 -4,1.79086 -4,4c0,2.20914 1.79086,4 4,4c2.20914,0 4,-1.79086 4,-4c0,-2.20914 -1.79086,-4 -4,-4z"></path></g></g></svg>